<?xml version="1.0" encoding="UTF-8" standalone="no"?><!-- Generator: Gravit.io --><svg xmlns="http://www.w3.org/2000/svg" xmlns:xlink="http://www.w3.org/1999/xlink" style="isolation:isolate" viewBox="446.023 -322.159 675 675" width="675pt" height="675pt"><defs><clipPath id="_clipPath_Z56aX0Uzbmu0I1r8ohpTkiN4ReBFxRiF"><rect x="446.023" y="-322.159" width="675" height="675"/></clipPath></defs><g clip-path="url(#_clipPath_Z56aX0Uzbmu0I1r8ohpTkiN4ReBFxRiF)"><circle vector-effect="non-scaling-stroke" cx="783.5227272727273" cy="15.340909090909065" r="337.5" fill="rgb(58,20,140)"/><g><defs><filter id="bvS4U62RT4vEwMNM8Ifiew4D4N5lpcBI" x="-200%" y="-200%" width="400%" height="400%" filterUnits="objectBoundingBox" color-interpolation-filters="sRGB"><feGaussianBlur xmlns="http://www.w3.org/2000/svg" stdDeviation="4.293609062839028"/></filter></defs><g filter="url(#bvS4U62RT4vEwMNM8Ifiew4D4N5lpcBI)"><mask id="_mask_ah2tMImyTYejWmFGPDMDd7nixNGJ5UBc"><circle vector-effect="non-scaling-stroke" cx="783.5227272727273" cy="15.340909090909065" r="303.63712374581945" fill="white" stroke="none"/></mask><circle vector-effect="non-scaling-stroke" cx="783.5227272727273" cy="15.340909090909065" r="303.63712374581945" fill="none"/><circle vector-effect="non-scaling-stroke" cx="783.5227272727273" cy="15.340909090909065" r="303.63712374581945" fill="none" mask="url(#_mask_ah2tMImyTYejWmFGPDMDd7nixNGJ5UBc)" stroke-width="6" stroke="rgb(255,83,178)" stroke-linejoin="miter" stroke-linecap="square" stroke-miterlimit="3"/></g><defs><filter id="SB5vvN9YVGA7HdGZT4fJVD4h0u96xArK" x="-200%" y="-200%" width="400%" height="400%" filterUnits="objectBoundingBox" color-interpolation-filters="sRGB"><feGaussianBlur xmlns="http://www.w3.org/2000/svg" stdDeviation="2.146804531419514"/></filter></defs><g filter="url(#SB5vvN9YVGA7HdGZT4fJVD4h0u96xArK)"><mask id="_mask_7Wue1NJzG8fydOEGTY760qCP29SlZlB0"><circle vector-effect="non-scaling-stroke" cx="783.5227272727273" cy="15.340909090909065" r="303.63712374581945" fill="white" stroke="none"/></mask><circle vector-effect="non-scaling-stroke" cx="783.5227272727273" cy="15.340909090909065" r="303.63712374581945" fill="none"/><circle vector-effect="non-scaling-stroke" cx="783.5227272727273" cy="15.340909090909065" r="303.63712374581945" fill="none" mask="url(#_mask_7Wue1NJzG8fydOEGTY760qCP29SlZlB0)" stroke-width="6" stroke="rgb(255,83,178)" stroke-linejoin="miter" stroke-linecap="square" stroke-miterlimit="3"/></g><mask id="_mask_sj8B0DHvLvOdYpZosvc4u4E93Ssbt4GM"><circle vector-effect="non-scaling-stroke" cx="783.5227272727273" cy="15.340909090909065" r="303.63712374581945" fill="white" stroke="none"/></mask><circle vector-effect="non-scaling-stroke" cx="783.5227272727273" cy="15.340909090909065" r="303.63712374581945" fill="none"/><circle vector-effect="non-scaling-stroke" cx="783.5227272727273" cy="15.340909090909065" r="303.63712374581945" fill="none" mask="url(#_mask_sj8B0DHvLvOdYpZosvc4u4E93Ssbt4GM)" stroke-width="6" stroke="rgb(255,192,227)" stroke-linejoin="miter" stroke-linecap="square" stroke-miterlimit="3"/></g><g><defs><filter id="YMaB98asMvAgmuVcv54G58STRrQKGzeG" x="-200%" y="-200%" width="400%" height="400%" filterUnits="objectBoundingBox" color-interpolation-filters="sRGB"><feGaussianBlur xmlns="http://www.w3.org/2000/svg" stdDeviation="4.293609062839028"/></filter></defs><g filter="url(#YMaB98asMvAgmuVcv54G58STRrQKGzeG)"><path d=" M 783.523 -220.472 C 653.517 -220.472 547.71 -114.698 547.71 15.341 C 547.71 145.379 653.517 251.154 783.523 251.154 C 913.529 251.154 1019.335 145.379 1019.335 15.341 C 1019.335 -114.698 913.529 -220.472 783.523 -220.472 Z  M 783.523 -204.209 C 904.576 -204.209 1003.072 -105.712 1003.072 15.341 C 1003.072 136.394 904.576 234.891 783.523 234.891 C 710.177 234.891 645.158 198.706 605.265 143.281 C 607.46 143.607 609.656 143.794 611.81 143.794 C 628.923 143.816 644.684 134.5 652.915 119.497 C 665.283 96.835 656.966 68.439 634.327 56.031 C 618.015 47.11 597.97 48.694 583.261 60.064 C 581.55 61.387 580.437 63.336 580.167 65.481 C 579.897 67.627 580.492 69.792 581.822 71.497 C 583.134 73.205 585.074 74.317 587.211 74.585 C 589.348 74.854 591.503 74.257 593.198 72.928 C 602.793 65.503 615.88 64.481 626.512 70.326 C 633.606 74.2 638.871 80.734 641.148 88.49 C 643.425 96.246 642.527 104.588 638.652 111.683 C 630.554 126.438 612.046 131.863 597.263 123.815 C 595.462 122.83 593.769 121.658 592.214 120.318 C 591.579 119.814 590.88 119.529 590.148 119.204 C 572.934 87.294 563.938 51.598 563.973 15.341 C 563.973 -105.712 662.47 -204.209 783.523 -204.209 Z  M 787.751 -171.65 C 762.205 -172.237 736.81 -167.576 713.137 -157.957 C 708.98 -156.273 706.976 -151.538 708.66 -147.382 C 710.344 -143.226 715.079 -141.222 719.235 -142.906 C 748.201 -154.639 779.826 -158.219 810.682 -153.257 C 815.121 -152.547 819.295 -155.571 820.005 -160.01 C 820.714 -164.449 817.691 -168.623 813.251 -169.333 C 804.814 -170.688 796.294 -171.463 787.751 -171.65 L 787.751 -171.65 Z  M 845.777 -160.405 C 842.526 -160.26 839.676 -158.185 838.54 -155.135 C 837.775 -153.113 837.847 -150.869 838.741 -148.9 C 839.636 -146.931 841.278 -145.4 843.305 -144.646 C 849.111 -142.491 854.836 -139.986 860.389 -137.222 C 861.519 -136.632 862.775 -136.326 864.049 -136.327 C 867 -136.327 869.855 -137.954 871.318 -140.808 C 873.318 -144.826 871.703 -149.705 867.7 -151.736 C 861.658 -154.786 855.34 -157.51 848.989 -159.9 C 847.96 -160.271 846.87 -160.442 845.777 -160.405 Z  M 699.004 -83.725 C 697.924 -83.895 696.819 -83.842 695.76 -83.57 C 680.304 -79.613 668.44 -67.218 665.163 -51.604 C 661.885 -35.99 667.765 -19.871 680.325 -10.033 C 692.885 -0.196 709.944 1.65 724.317 -5.272 C 739.311 -12.518 748.588 -27.956 747.948 -44.596 C 747.761 -49.068 743.695 -52.728 739.531 -52.41 C 737.374 -52.336 735.335 -51.408 733.864 -49.829 C 732.392 -48.25 731.608 -46.151 731.685 -43.994 C 732.093 -33.807 726.417 -24.349 717.235 -19.917 C 704.498 -13.773 689.191 -19.098 683.018 -31.822 C 679.682 -38.748 679.632 -46.806 682.881 -53.773 C 686.13 -60.741 692.335 -65.882 699.785 -67.779 C 703.51 -68.765 706.036 -72.223 705.844 -76.071 C 705.652 -79.919 702.792 -83.107 698.988 -83.717 L 699.004 -83.725 Z  M 724.252 -80.147 C 720.417 -80.643 716.763 -78.369 715.514 -74.709 C 714.265 -71.049 715.767 -67.015 719.105 -65.063 C 720.853 -64.006 722.504 -62.762 723.968 -61.339 C 725.507 -59.826 727.586 -58.988 729.744 -59.013 C 731.902 -59.037 733.961 -59.921 735.466 -61.469 C 738.599 -64.679 738.541 -69.82 735.336 -72.959 C 732.927 -75.31 730.24 -77.358 727.334 -79.057 C 726.388 -79.623 725.337 -79.991 724.244 -80.139 L 724.252 -80.147 Z  M 856.706 -65.974 C 847.724 -65.974 840.443 -58.693 840.443 -49.711 C 840.443 -40.729 847.724 -33.448 856.706 -33.448 C 865.688 -33.448 872.969 -40.729 872.969 -49.711 C 872.969 -58.693 865.688 -65.974 856.706 -65.974 Z  M 921.758 23.472 C 912.776 23.472 905.495 30.754 905.495 39.735 C 905.495 48.717 912.776 55.998 921.758 55.998 C 930.739 55.998 938.021 48.717 938.021 39.735 C 938.021 30.754 930.739 23.472 921.758 23.472 Z  M 824.18 31.604 C 806.234 31.604 791.654 46.184 791.654 64.13 C 791.654 82.076 806.234 96.656 824.18 96.656 C 842.126 96.656 856.706 82.076 856.706 64.13 C 856.706 46.184 842.126 31.604 824.18 31.604 Z  M 824.18 47.867 C 833.141 47.867 840.443 55.169 840.443 64.13 C 840.443 73.091 833.141 80.393 824.18 80.393 C 815.219 80.393 807.917 73.091 807.917 64.13 C 807.917 55.169 815.219 47.867 824.18 47.867 Z  M 705.257 140.525 C 702.016 140.108 698.844 141.688 697.223 144.526 L 689.092 158.626 C 688.013 160.486 687.718 162.7 688.271 164.779 C 688.825 166.858 690.182 168.631 692.044 169.709 C 693.904 170.792 696.119 171.09 698.199 170.536 C 700.279 169.982 702.052 168.622 703.127 166.757 L 711.258 152.657 C 712.628 150.303 712.725 147.419 711.518 144.979 C 710.31 142.538 707.959 140.865 705.257 140.525 Z  M 861.788 140.525 C 859.085 140.876 856.736 142.555 855.53 145 C 854.324 147.445 854.42 150.331 855.787 152.69 L 863.919 166.757 C 864.993 168.622 866.767 169.982 868.847 170.536 C 870.927 171.09 873.142 170.792 875.002 169.709 C 876.87 168.637 878.233 166.864 878.787 164.782 C 879.342 162.701 879.041 160.484 877.953 158.626 L 869.822 144.558 C 868.195 141.724 865.033 140.137 861.788 140.525 Z  M 741.369 156.373 C 738.123 156.829 735.461 159.177 734.604 162.342 L 730.416 178.068 C 729.26 182.408 731.841 186.864 736.181 188.021 C 740.522 189.177 744.978 186.596 746.134 182.256 L 750.363 166.537 C 751.511 162.205 748.941 157.759 744.614 156.593 C 743.561 156.285 742.454 156.21 741.369 156.373 Z  M 825.709 156.373 C 824.613 156.21 823.496 156.284 822.432 156.593 C 818.114 157.731 815.544 162.212 816.683 166.537 L 820.911 182.256 C 822.089 186.586 826.542 189.154 830.88 188.005 C 835.207 186.842 837.778 182.398 836.629 178.068 L 832.442 162.342 C 831.589 159.187 828.943 156.841 825.709 156.373 Z  M 783.523 161.707 C 779.032 161.707 775.391 165.348 775.391 169.839 L 775.391 186.102 C 775.391 190.593 779.032 194.233 783.523 194.233 C 788.014 194.233 791.654 190.593 791.654 186.102 L 791.654 169.839 C 791.654 165.348 788.014 161.707 783.523 161.707 Z " fill="rgb(2,160,255)"/></g><defs><filter id="ZoXINXmposI2JeuNcAa7CDfJk2yhhGvc" x="-200%" y="-200%" width="400%" height="400%" filterUnits="objectBoundingBox" color-interpolation-filters="sRGB"><feGaussianBlur xmlns="http://www.w3.org/2000/svg" stdDeviation="2.146804531419514"/></filter></defs><g filter="url(#ZoXINXmposI2JeuNcAa7CDfJk2yhhGvc)"><path d=" M 783.523 -220.472 C 653.517 -220.472 547.71 -114.698 547.71 15.341 C 547.71 145.379 653.517 251.154 783.523 251.154 C 913.529 251.154 1019.335 145.379 1019.335 15.341 C 1019.335 -114.698 913.529 -220.472 783.523 -220.472 Z  M 783.523 -204.209 C 904.576 -204.209 1003.072 -105.712 1003.072 15.341 C 1003.072 136.394 904.576 234.891 783.523 234.891 C 710.177 234.891 645.158 198.706 605.265 143.281 C 607.46 143.607 609.656 143.794 611.81 143.794 C 628.923 143.816 644.684 134.5 652.915 119.497 C 665.283 96.835 656.966 68.439 634.327 56.031 C 618.015 47.11 597.97 48.694 583.261 60.064 C 581.55 61.387 580.437 63.336 580.167 65.481 C 579.897 67.627 580.492 69.792 581.822 71.497 C 583.134 73.205 585.074 74.317 587.211 74.585 C 589.348 74.854 591.503 74.257 593.198 72.928 C 602.793 65.503 615.88 64.481 626.512 70.326 C 633.606 74.2 638.871 80.734 641.148 88.49 C 643.425 96.246 642.527 104.588 638.652 111.683 C 630.554 126.438 612.046 131.863 597.263 123.815 C 595.462 122.83 593.769 121.658 592.214 120.318 C 591.579 119.814 590.88 119.529 590.148 119.204 C 572.934 87.294 563.938 51.598 563.973 15.341 C 563.973 -105.712 662.47 -204.209 783.523 -204.209 Z  M 787.751 -171.65 C 762.205 -172.237 736.81 -167.576 713.137 -157.957 C 708.98 -156.273 706.976 -151.538 708.66 -147.382 C 710.344 -143.226 715.079 -141.222 719.235 -142.906 C 748.201 -154.639 779.826 -158.219 810.682 -153.257 C 815.121 -152.547 819.295 -155.571 820.005 -160.01 C 820.714 -164.449 817.691 -168.623 813.251 -169.333 C 804.814 -170.688 796.294 -171.463 787.751 -171.65 L 787.751 -171.65 Z  M 845.777 -160.405 C 842.526 -160.26 839.676 -158.185 838.54 -155.135 C 837.775 -153.113 837.847 -150.869 838.741 -148.9 C 839.636 -146.931 841.278 -145.4 843.305 -144.646 C 849.111 -142.491 854.836 -139.986 860.389 -137.222 C 861.519 -136.632 862.775 -136.326 864.049 -136.327 C 867 -136.327 869.855 -137.954 871.318 -140.808 C 873.318 -144.826 871.703 -149.705 867.7 -151.736 C 861.658 -154.786 855.34 -157.51 848.989 -159.9 C 847.96 -160.271 846.87 -160.442 845.777 -160.405 Z  M 699.004 -83.725 C 697.924 -83.895 696.819 -83.842 695.76 -83.57 C 680.304 -79.613 668.44 -67.218 665.163 -51.604 C 661.885 -35.99 667.765 -19.871 680.325 -10.033 C 692.885 -0.196 709.944 1.65 724.317 -5.272 C 739.311 -12.518 748.588 -27.956 747.948 -44.596 C 747.761 -49.068 743.695 -52.728 739.531 -52.41 C 737.374 -52.336 735.335 -51.408 733.864 -49.829 C 732.392 -48.25 731.608 -46.151 731.685 -43.994 C 732.093 -33.807 726.417 -24.349 717.235 -19.917 C 704.498 -13.773 689.191 -19.098 683.018 -31.822 C 679.682 -38.748 679.632 -46.806 682.881 -53.773 C 686.13 -60.741 692.335 -65.882 699.785 -67.779 C 703.51 -68.765 706.036 -72.223 705.844 -76.071 C 705.652 -79.919 702.792 -83.107 698.988 -83.717 L 699.004 -83.725 Z  M 724.252 -80.147 C 720.417 -80.643 716.763 -78.369 715.514 -74.709 C 714.265 -71.049 715.767 -67.015 719.105 -65.063 C 720.853 -64.006 722.504 -62.762 723.968 -61.339 C 725.507 -59.826 727.586 -58.988 729.744 -59.013 C 731.902 -59.037 733.961 -59.921 735.466 -61.469 C 738.599 -64.679 738.541 -69.82 735.336 -72.959 C 732.927 -75.31 730.24 -77.358 727.334 -79.057 C 726.388 -79.623 725.337 -79.991 724.244 -80.139 L 724.252 -80.147 Z  M 856.706 -65.974 C 847.724 -65.974 840.443 -58.693 840.443 -49.711 C 840.443 -40.729 847.724 -33.448 856.706 -33.448 C 865.688 -33.448 872.969 -40.729 872.969 -49.711 C 872.969 -58.693 865.688 -65.974 856.706 -65.974 Z  M 921.758 23.472 C 912.776 23.472 905.495 30.754 905.495 39.735 C 905.495 48.717 912.776 55.998 921.758 55.998 C 930.739 55.998 938.021 48.717 938.021 39.735 C 938.021 30.754 930.739 23.472 921.758 23.472 Z  M 824.18 31.604 C 806.234 31.604 791.654 46.184 791.654 64.13 C 791.654 82.076 806.234 96.656 824.18 96.656 C 842.126 96.656 856.706 82.076 856.706 64.13 C 856.706 46.184 842.126 31.604 824.18 31.604 Z  M 824.18 47.867 C 833.141 47.867 840.443 55.169 840.443 64.13 C 840.443 73.091 833.141 80.393 824.18 80.393 C 815.219 80.393 807.917 73.091 807.917 64.13 C 807.917 55.169 815.219 47.867 824.18 47.867 Z  M 705.257 140.525 C 702.016 140.108 698.844 141.688 697.223 144.526 L 689.092 158.626 C 688.013 160.486 687.718 162.7 688.271 164.779 C 688.825 166.858 690.182 168.631 692.044 169.709 C 693.904 170.792 696.119 171.09 698.199 170.536 C 700.279 169.982 702.052 168.622 703.127 166.757 L 711.258 152.657 C 712.628 150.303 712.725 147.419 711.518 144.979 C 710.31 142.538 707.959 140.865 705.257 140.525 Z  M 861.788 140.525 C 859.085 140.876 856.736 142.555 855.53 145 C 854.324 147.445 854.42 150.331 855.787 152.69 L 863.919 166.757 C 864.993 168.622 866.767 169.982 868.847 170.536 C 870.927 171.09 873.142 170.792 875.002 169.709 C 876.87 168.637 878.233 166.864 878.787 164.782 C 879.342 162.701 879.041 160.484 877.953 158.626 L 869.822 144.558 C 868.195 141.724 865.033 140.137 861.788 140.525 Z  M 741.369 156.373 C 738.123 156.829 735.461 159.177 734.604 162.342 L 730.416 178.068 C 729.26 182.408 731.841 186.864 736.181 188.021 C 740.522 189.177 744.978 186.596 746.134 182.256 L 750.363 166.537 C 751.511 162.205 748.941 157.759 744.614 156.593 C 743.561 156.285 742.454 156.21 741.369 156.373 Z  M 825.709 156.373 C 824.613 156.21 823.496 156.284 822.432 156.593 C 818.114 157.731 815.544 162.212 816.683 166.537 L 820.911 182.256 C 822.089 186.586 826.542 189.154 830.88 188.005 C 835.207 186.842 837.778 182.398 836.629 178.068 L 832.442 162.342 C 831.589 159.187 828.943 156.841 825.709 156.373 Z  M 783.523 161.707 C 779.032 161.707 775.391 165.348 775.391 169.839 L 775.391 186.102 C 775.391 190.593 779.032 194.233 783.523 194.233 C 788.014 194.233 791.654 190.593 791.654 186.102 L 791.654 169.839 C 791.654 165.348 788.014 161.707 783.523 161.707 Z " fill="rgb(2,160,255)"/></g><path d=" M 783.523 -220.472 C 653.517 -220.472 547.71 -114.698 547.71 15.341 C 547.71 145.379 653.517 251.154 783.523 251.154 C 913.529 251.154 1019.335 145.379 1019.335 15.341 C 1019.335 -114.698 913.529 -220.472 783.523 -220.472 Z  M 783.523 -204.209 C 904.576 -204.209 1003.072 -105.712 1003.072 15.341 C 1003.072 136.394 904.576 234.891 783.523 234.891 C 710.177 234.891 645.158 198.706 605.265 143.281 C 607.46 143.607 609.656 143.794 611.81 143.794 C 628.923 143.816 644.684 134.5 652.915 119.497 C 665.283 96.835 656.966 68.439 634.327 56.031 C 618.015 47.11 597.97 48.694 583.261 60.064 C 581.55 61.387 580.437 63.336 580.167 65.481 C 579.897 67.627 580.492 69.792 581.822 71.497 C 583.134 73.205 585.074 74.317 587.211 74.585 C 589.348 74.854 591.503 74.257 593.198 72.928 C 602.793 65.503 615.88 64.481 626.512 70.326 C 633.606 74.2 638.871 80.734 641.148 88.49 C 643.425 96.246 642.527 104.588 638.652 111.683 C 630.554 126.438 612.046 131.863 597.263 123.815 C 595.462 122.83 593.769 121.658 592.214 120.318 C 591.579 119.814 590.88 119.529 590.148 119.204 C 572.934 87.294 563.938 51.598 563.973 15.341 C 563.973 -105.712 662.47 -204.209 783.523 -204.209 Z  M 787.751 -171.65 C 762.205 -172.237 736.81 -167.576 713.137 -157.957 C 708.98 -156.273 706.976 -151.538 708.66 -147.382 C 710.344 -143.226 715.079 -141.222 719.235 -142.906 C 748.201 -154.639 779.826 -158.219 810.682 -153.257 C 815.121 -152.547 819.295 -155.571 820.005 -160.01 C 820.714 -164.449 817.691 -168.623 813.251 -169.333 C 804.814 -170.688 796.294 -171.463 787.751 -171.65 L 787.751 -171.65 Z  M 845.777 -160.405 C 842.526 -160.26 839.676 -158.185 838.54 -155.135 C 837.775 -153.113 837.847 -150.869 838.741 -148.9 C 839.636 -146.931 841.278 -145.4 843.305 -144.646 C 849.111 -142.491 854.836 -139.986 860.389 -137.222 C 861.519 -136.632 862.775 -136.326 864.049 -136.327 C 867 -136.327 869.855 -137.954 871.318 -140.808 C 873.318 -144.826 871.703 -149.705 867.7 -151.736 C 861.658 -154.786 855.34 -157.51 848.989 -159.9 C 847.96 -160.271 846.87 -160.442 845.777 -160.405 Z  M 699.004 -83.725 C 697.924 -83.895 696.819 -83.842 695.76 -83.57 C 680.304 -79.613 668.44 -67.218 665.163 -51.604 C 661.885 -35.99 667.765 -19.871 680.325 -10.033 C 692.885 -0.196 709.944 1.65 724.317 -5.272 C 739.311 -12.518 748.588 -27.956 747.948 -44.596 C 747.761 -49.068 743.695 -52.728 739.531 -52.41 C 737.374 -52.336 735.335 -51.408 733.864 -49.829 C 732.392 -48.25 731.608 -46.151 731.685 -43.994 C 732.093 -33.807 726.417 -24.349 717.235 -19.917 C 704.498 -13.773 689.191 -19.098 683.018 -31.822 C 679.682 -38.748 679.632 -46.806 682.881 -53.773 C 686.13 -60.741 692.335 -65.882 699.785 -67.779 C 703.51 -68.765 706.036 -72.223 705.844 -76.071 C 705.652 -79.919 702.792 -83.107 698.988 -83.717 L 699.004 -83.725 Z  M 724.252 -80.147 C 720.417 -80.643 716.763 -78.369 715.514 -74.709 C 714.265 -71.049 715.767 -67.015 719.105 -65.063 C 720.853 -64.006 722.504 -62.762 723.968 -61.339 C 725.507 -59.826 727.586 -58.988 729.744 -59.013 C 731.902 -59.037 733.961 -59.921 735.466 -61.469 C 738.599 -64.679 738.541 -69.82 735.336 -72.959 C 732.927 -75.31 730.24 -77.358 727.334 -79.057 C 726.388 -79.623 725.337 -79.991 724.244 -80.139 L 724.252 -80.147 Z  M 856.706 -65.974 C 847.724 -65.974 840.443 -58.693 840.443 -49.711 C 840.443 -40.729 847.724 -33.448 856.706 -33.448 C 865.688 -33.448 872.969 -40.729 872.969 -49.711 C 872.969 -58.693 865.688 -65.974 856.706 -65.974 Z  M 921.758 23.472 C 912.776 23.472 905.495 30.754 905.495 39.735 C 905.495 48.717 912.776 55.998 921.758 55.998 C 930.739 55.998 938.021 48.717 938.021 39.735 C 938.021 30.754 930.739 23.472 921.758 23.472 Z  M 824.18 31.604 C 806.234 31.604 791.654 46.184 791.654 64.13 C 791.654 82.076 806.234 96.656 824.18 96.656 C 842.126 96.656 856.706 82.076 856.706 64.13 C 856.706 46.184 842.126 31.604 824.18 31.604 Z  M 824.18 47.867 C 833.141 47.867 840.443 55.169 840.443 64.13 C 840.443 73.091 833.141 80.393 824.18 80.393 C 815.219 80.393 807.917 73.091 807.917 64.13 C 807.917 55.169 815.219 47.867 824.18 47.867 Z  M 705.257 140.525 C 702.016 140.108 698.844 141.688 697.223 144.526 L 689.092 158.626 C 688.013 160.486 687.718 162.7 688.271 164.779 C 688.825 166.858 690.182 168.631 692.044 169.709 C 693.904 170.792 696.119 171.09 698.199 170.536 C 700.279 169.982 702.052 168.622 703.127 166.757 L 711.258 152.657 C 712.628 150.303 712.725 147.419 711.518 144.979 C 710.31 142.538 707.959 140.865 705.257 140.525 Z  M 861.788 140.525 C 859.085 140.876 856.736 142.555 855.53 145 C 854.324 147.445 854.42 150.331 855.787 152.69 L 863.919 166.757 C 864.993 168.622 866.767 169.982 868.847 170.536 C 870.927 171.09 873.142 170.792 875.002 169.709 C 876.87 168.637 878.233 166.864 878.787 164.782 C 879.342 162.701 879.041 160.484 877.953 158.626 L 869.822 144.558 C 868.195 141.724 865.033 140.137 861.788 140.525 Z  M 741.369 156.373 C 738.123 156.829 735.461 159.177 734.604 162.342 L 730.416 178.068 C 729.26 182.408 731.841 186.864 736.181 188.021 C 740.522 189.177 744.978 186.596 746.134 182.256 L 750.363 166.537 C 751.511 162.205 748.941 157.759 744.614 156.593 C 743.561 156.285 742.454 156.21 741.369 156.373 Z  M 825.709 156.373 C 824.613 156.21 823.496 156.284 822.432 156.593 C 818.114 157.731 815.544 162.212 816.683 166.537 L 820.911 182.256 C 822.089 186.586 826.542 189.154 830.88 188.005 C 835.207 186.842 837.778 182.398 836.629 178.068 L 832.442 162.342 C 831.589 159.187 828.943 156.841 825.709 156.373 Z  M 783.523 161.707 C 779.032 161.707 775.391 165.348 775.391 169.839 L 775.391 186.102 C 775.391 190.593 779.032 194.233 783.523 194.233 C 788.014 194.233 791.654 190.593 791.654 186.102 L 791.654 169.839 C 791.654 165.348 788.014 161.707 783.523 161.707 Z " fill="rgb(255,255,247)"/></g></g></svg>